<svg width="120" height="96" viewBox="0 0 120 96" fill="none" xmlns="http://www.w3.org/2000/svg">
<g filter="url(#filter0_d)">
<path d="M116 87H4L13.975 18H106.025L116 87Z" fill="#89664C"/>
<path d="M49.85 12.6C39.7 12.6 20.8 15.45 14.675 13.8C14.675 13.8 16.25 43.35 7.67499 84.9C19.75 84.15 35.85 78.3 47.75 78.3C59.825 78.3 59.825 84.9 59.825 84.9V19.95C60.175 19.95 60 12.6 49.85 12.6Z" fill="#B0BDC6"/>
<path d="M50.025 11.55C39.875 11.55 24.3 14.25 19.575 9C19.575 9 21.15 42.45 10.65 79.8C14.5 84.45 35.15 78.15 47.225 78.15C59.3 78.15 60 84.9 60 84.9V18.9C60.175 18.9 60.175 11.55 50.025 11.55" fill="#E1EBEF"/>
<path d="M47.925 78.3C35.85 78.3 14.675 84.9 7.85004 84.9H60.175C60.175 84.9 60 78.3 47.925 78.3Z" fill="#94989B"/>
<path d="M24.65 21.3L24.825 20.1C26.4 20.1 29.375 19.65 32.7 19.05C37.25 18.3 42.5 17.4 46.7 17.4C52.3 17.4 54.05 18.45 54.4 18.6L53.875 19.05L53.35 19.5C53.35 19.5 51.6 18.6 46.7 18.6C42.675 18.6 37.6 19.5 33.05 20.25C29.55 20.85 26.575 21.3 24.65 21.3" fill="#7D8B91"/>
<path d="M23.95 27.75L24.125 26.4C25.875 26.4 28.85 25.95 32.175 25.35C36.9 24.6 42.15 23.7 46.35 23.7C51.95 23.7 53.875 24.75 54.05 24.9L53.7 25.5L53.175 26.1C53.175 26.1 51.425 25.05 46.35 25.05C42.15 25.05 37.075 25.95 32.35 26.7C28.85 27.3 25.875 27.75 23.95 27.75" fill="#7D8B91"/>
<path d="M23.25 34.5L23.425 33.15C25.175 33.15 28.15 32.55 31.65 31.95C36.375 31.05 41.8 30.15 46.175 30.15C51.95 30.15 53.875 31.35 54.05 31.5L53.525 32.1L53 32.7C53 32.7 51.25 31.65 46 31.65C41.8 31.65 36.55 32.55 31.825 33.45C28.325 34.05 25.175 34.5 23.25 34.5" fill="#7D8B91"/>
<path d="M22.55 41.55L22.725 40.05C24.475 40.05 27.625 39.45 31.125 38.85C36.025 37.95 41.45 37.05 46 37.05C51.95 37.05 53.875 38.25 54.05 38.4L53.35 39L53 39.6C53 39.6 51.25 38.55 45.825 38.55C41.45 38.55 36.025 39.45 31.3 40.35C27.625 40.95 24.475 41.55 22.55 41.55" fill="#7D8B91"/>
<path d="M21.675 48.9L21.85 47.4C23.6 47.4 26.75 46.8 30.425 46.2C35.325 45.3 40.925 44.25 45.475 44.25C51.425 44.25 53.525 45.45 53.7 45.6L53.175 46.2L52.65 46.8C52.65 46.8 50.9 45.75 45.3 45.75C40.925 45.75 35.325 46.8 30.425 47.7C26.925 48.3 23.6 48.9 21.675 48.9" fill="#7D8B91"/>
<path d="M20.8 56.55L20.975 55.05C22.725 55.05 26.05 54.45 29.725 53.7C34.8 52.8 40.575 51.75 45.125 51.75C51.25 51.75 53.35 53.1 53.525 53.25L53 53.85L52.475 54.45C52.475 54.45 50.55 53.25 44.95 53.25C40.4 53.25 34.8 54.3 29.725 55.2C26.225 55.95 22.9 56.55 20.8 56.55Z" fill="#7D8B91"/>
<path d="M19.925 64.5L20.1 62.85C22.025 62.85 25.175 62.25 29.025 61.5C34.275 60.45 40.05 59.4 44.775 59.4C51.075 59.4 53.175 60.75 53.35 60.9L53 61.65L52.475 62.25C52.475 62.25 50.55 61.05 44.775 61.05C40.225 61.05 34.45 62.1 29.2 63.15C25.525 63.9 22.025 64.5 19.925 64.5" fill="#7D8B91"/>
<path d="M19.05 72.9L19.225 71.25C21.15 71.25 24.475 70.65 28.325 69.9C33.575 68.85 39.7 67.65 44.425 67.65C50.9 67.65 53 69.15 53.175 69.3L52.65 69.9L52.3 70.5C52.3 70.5 50.375 69.15 44.425 69.15C39.7 69.15 33.75 70.35 28.5 71.4C24.65 72.15 21.15 72.9 19.05 72.9" fill="#7D8B91"/>
<path d="M70.15 12.6C80.3 12.6 99.2 15.45 105.325 13.8C105.325 13.8 103.75 43.35 112.325 84.9C100.25 84.15 84.15 78.3 72.25 78.3C60.175 78.3 60.175 84.9 60.175 84.9V19.95C60 19.95 60 12.6 70.15 12.6" fill="#B0BDC6"/>
<path d="M69.975 11.55C80.125 11.55 95.7 14.25 100.425 9C100.425 9 98.85 42.45 109.35 79.8C105.5 84.45 84.85 78.15 72.775 78.15C60.7 78.15 60 84.9 60 84.9V18.9C60 18.9 60 11.55 69.975 11.55" fill="#D9E3E8"/>
<path d="M72.075 78.3C84.15 78.3 105.325 84.9 112.15 84.9H60C60 84.9 60 78.3 72.075 78.3Z" fill="#94989B"/>
<path d="M95.35 21.3L95.175 20.1C93.6 20.1 90.625 19.65 87.3 19.05C82.75 18.3 77.5 17.4 73.3 17.4C67.7 17.4 65.95 18.45 65.6 18.6L66.125 19.05L66.65 19.5C66.65 19.5 68.4 18.6 73.3 18.6C77.325 18.6 82.4 19.5 86.95 20.25C90.625 20.85 93.6 21.3 95.35 21.3" fill="#7D8B91"/>
<path d="M96.05 27.75L95.875 26.4C94.125 26.4 91.15 25.95 87.825 25.35C83.1 24.6 77.85 23.7 73.65 23.7C68.05 23.7 66.125 24.75 65.95 24.9L66.475 25.35L67 25.95C67 25.95 68.75 24.9 73.825 24.9C78.025 24.9 83.1 25.8 87.825 26.55C91.15 27.3 94.125 27.75 96.05 27.75" fill="#7D8B91"/>
<path d="M96.75 34.5L96.575 33.15C94.825 33.15 91.85 32.55 88.35 31.95C83.625 31.05 78.2 30.15 73.825 30.15C68.05 30.15 66.125 31.35 65.95 31.5L66.475 32.1L67 32.7C67 32.7 68.75 31.65 74 31.65C78.2 31.65 83.45 32.55 88.175 33.45C91.85 34.05 94.825 34.5 96.75 34.5" fill="#7D8B91"/>
<path d="M97.625 41.55L97.45 40.05C95.7 40.05 92.55 39.45 89.05 38.85C84.15 37.95 78.725 37.05 74.175 37.05C68.225 37.05 66.3 38.25 66.125 38.4L66.65 39L67.175 39.6C67.175 39.6 68.925 38.55 74.35 38.55C78.725 38.55 84.15 39.45 88.875 40.35C92.375 40.95 95.7 41.55 97.625 41.55" fill="#7D8B91"/>
<path d="M98.325 48.9L98.15 47.4C96.4 47.4 93.25 46.8 89.575 46.2C84.675 45.3 79.075 44.25 74.525 44.25C68.575 44.25 66.475 45.45 66.3 45.6L66.825 46.2L67.35 46.8C67.35 46.8 69.1 45.75 74.7 45.75C79.075 45.75 84.675 46.8 89.575 47.7C93.075 48.3 96.4 48.9 98.325 48.9" fill="#7D8B91"/>
<path d="M99.2 56.55L99.025 55.05C97.275 55.05 93.95 54.45 90.275 53.7C85.2 52.8 79.425 51.75 74.875 51.75C68.75 51.75 66.65 53.1 66.475 53.25L67 53.85L67.525 54.45C67.525 54.45 69.45 53.25 75.05 53.25C79.6 53.25 85.2 54.3 90.275 55.2C93.775 55.95 97.1 56.55 99.2 56.55Z" fill="#7D8B91"/>
<path d="M100.075 64.5L99.9 62.85C97.975 62.85 94.825 62.25 90.975 61.5C85.725 60.45 79.95 59.4 75.225 59.4C68.925 59.4 66.825 60.75 66.65 60.9L67.175 61.5L67.7 62.1C67.7 62.1 69.625 60.9 75.4 60.9C79.95 60.9 85.725 61.95 90.975 63C94.65 63.9 97.975 64.5 100.075 64.5" fill="#7D8B91"/>
<path d="M100.95 72.9L100.775 71.25C98.85 71.25 95.525 70.65 91.675 69.9C86.425 68.85 80.3 67.65 75.575 67.65C69.1 67.65 67 69.15 66.825 69.3L67.35 69.9L67.875 70.65C67.875 70.65 69.8 69.3 75.75 69.3C80.475 69.3 86.425 70.5 91.675 71.55C95.35 72.15 98.85 72.9 100.95 72.9" fill="#7D8B91"/>
</g>
<defs>
<filter id="filter0_d" x="0" y="0" width="120" height="104" filterUnits="userSpaceOnUse" color-interpolation-filters="sRGB">
<feFlood flood-opacity="0" result="BackgroundImageFix"/>
<feColorMatrix in="SourceAlpha" type="matrix" values="0 0 0 0 0 0 0 0 0 0 0 0 0 0 0 0 0 0 127 0" result="hardAlpha"/>
<feOffset dy="4"/>
<feGaussianBlur stdDeviation="2"/>
<feComposite in2="hardAlpha" operator="out"/>
<feColorMatrix type="matrix" values="0 0 0 0 0 0 0 0 0 0 0 0 0 0 0 0 0 0 0.25 0"/>
<feBlend mode="normal" in2="BackgroundImageFix" result="effect1_dropShadow"/>
<feBlend mode="normal" in="SourceGraphic" in2="effect1_dropShadow" result="shape"/>
</filter>
</defs>
</svg>
